<?xml version="1.0" encoding="utf-8"?>
<!-- Generator: Adobe Illustrator 16.0.0, SVG Export Plug-In . SVG Version: 6.00 Build 0)  -->
<!DOCTYPE svg PUBLIC "-//W3C//DTD SVG 1.1//EN" "http://www.w3.org/Graphics/SVG/1.1/DTD/svg11.dtd">
<svg version="1.1" id="Layer_1" xmlns="http://www.w3.org/2000/svg" xmlns:xlink="http://www.w3.org/1999/xlink" x="0px" y="0px"
	 width="2103px" height="463.871px" viewBox="0 0 2103 463.871" enable-background="new 0 0 2103 463.871" xml:space="preserve">
<g>
	<polyline fill="#FFFFFF" stroke="#000000" stroke-width="4" stroke-miterlimit="1" points="701.39,463.871 2,463.871 2,2 701.39,2 
			"/>
	<line fill="none" stroke="#000000" stroke-width="4" stroke-miterlimit="1" x1="701.39" y1="2" x2="701.39" y2="463.871"/>
	<line fill="none" stroke="#000000" stroke-width="4" stroke-miterlimit="1" x1="601.508" y1="2" x2="601.508" y2="463.871"/>
	<line fill="none" stroke="#000000" stroke-width="4" stroke-miterlimit="1" x1="501.631" y1="2" x2="501.631" y2="463.871"/>
	<line fill="none" stroke="#000000" stroke-width="4" stroke-miterlimit="1" x1="401.527" y1="2" x2="401.527" y2="463.871"/>
	<line fill="none" stroke="#000000" stroke-width="4" stroke-miterlimit="1" x1="301.645" y1="2" x2="301.645" y2="463.871"/>
	<line fill="none" stroke="#000000" stroke-width="4" stroke-miterlimit="1" x1="201.765" y1="2" x2="201.765" y2="463.871"/>
	<line fill="none" stroke="#000000" stroke-width="4" stroke-miterlimit="1" x1="101.882" y1="2" x2="101.882" y2="463.871"/>
	<rect x="72.72" y="2" stroke="#000000" stroke-miterlimit="1" width="62.039" height="281.963"/>
	<rect x="171.225" y="2" stroke="#000000" stroke-miterlimit="1" width="62.039" height="281.963"/>
	<rect x="370.508" y="2" stroke="#000000" stroke-miterlimit="1" width="62.039" height="281.963"/>
	<rect x="470.611" y="2" stroke="#000000" stroke-miterlimit="1" width="62.039" height="281.963"/>
	<rect x="570.488" y="2" stroke="#000000" stroke-miterlimit="1" width="62.038" height="281.963"/>
	<polyline fill="#FFFFFF" stroke="#000000" stroke-width="4" stroke-miterlimit="1" points="1400.775,463.871 701.39,463.871 
		701.39,2 1400.775,2 	"/>
	<line fill="none" stroke="#000000" stroke-width="4" stroke-miterlimit="1" x1="1400.775" y1="2" x2="1400.775" y2="463.871"/>
	<line fill="none" stroke="#000000" stroke-width="4" stroke-miterlimit="1" x1="1300.893" y1="2" x2="1300.893" y2="463.871"/>
	<line fill="none" stroke="#000000" stroke-width="4" stroke-miterlimit="1" x1="1201.016" y1="2" x2="1201.016" y2="463.871"/>
	<line fill="none" stroke="#000000" stroke-width="4" stroke-miterlimit="1" x1="1100.912" y1="2" x2="1100.912" y2="463.871"/>
	<line fill="none" stroke="#000000" stroke-width="4" stroke-miterlimit="1" x1="1001.029" y1="2" x2="1001.029" y2="463.871"/>
	<line fill="none" stroke="#000000" stroke-width="4" stroke-miterlimit="1" x1="901.15" y1="2" x2="901.15" y2="463.871"/>
	<line fill="none" stroke="#000000" stroke-width="4" stroke-miterlimit="1" x1="801.268" y1="2" x2="801.268" y2="463.871"/>
	<rect x="772.035" y="2" stroke="#000000" stroke-miterlimit="1" width="62.034" height="281.963"/>
	<rect x="870.535" y="2" stroke="#000000" stroke-miterlimit="1" width="62.038" height="281.963"/>
	<rect x="1069.818" y="2" stroke="#000000" stroke-miterlimit="1" width="62.038" height="281.963"/>
	<rect x="1169.923" y="2" stroke="#000000" stroke-miterlimit="1" width="62.038" height="281.963"/>
	<rect x="1269.799" y="2" stroke="#000000" stroke-miterlimit="1" width="62.038" height="281.963"/>
	<polyline fill="#FFFFFF" stroke="#000000" stroke-width="4" stroke-miterlimit="1" points="2100.161,463.871 1400.775,463.871 
		1400.775,2 2100.161,2 	"/>
	<line fill="none" stroke="#000000" stroke-width="4" stroke-miterlimit="1" x1="2100.161" y1="2" x2="2100.161" y2="463.871"/>
	<line fill="none" stroke="#000000" stroke-width="4" stroke-miterlimit="1" x1="2000.278" y1="2" x2="2000.278" y2="463.871"/>
	<line fill="none" stroke="#000000" stroke-width="4" stroke-miterlimit="1" x1="1900.401" y1="2" x2="1900.401" y2="463.871"/>
	<line fill="none" stroke="#000000" stroke-width="4" stroke-miterlimit="1" x1="1800.298" y1="2" x2="1800.298" y2="463.871"/>
	<line fill="none" stroke="#000000" stroke-width="4" stroke-miterlimit="1" x1="1700.415" y1="2" x2="1700.415" y2="463.871"/>
	<line fill="none" stroke="#000000" stroke-width="4" stroke-miterlimit="1" x1="1600.536" y1="2" x2="1600.536" y2="463.871"/>
	<line fill="none" stroke="#000000" stroke-width="4" stroke-miterlimit="1" x1="1500.653" y1="2" x2="1500.653" y2="463.871"/>
	<rect x="1471.421" y="2" stroke="#000000" stroke-miterlimit="1" width="62.034" height="281.963"/>
	<rect x="1569.921" y="2" stroke="#000000" stroke-miterlimit="1" width="62.038" height="281.963"/>
	<rect x="1769.204" y="2" stroke="#000000" stroke-miterlimit="1" width="62.038" height="281.963"/>
	<rect x="1869.309" y="2" stroke="#000000" stroke-miterlimit="1" width="62.038" height="281.963"/>
	<rect x="1969.185" y="2" stroke="#000000" stroke-miterlimit="1" width="62.038" height="281.963"/>
</g>
</svg>
